<svg xmlns="http://www.w3.org/2000/svg" viewBox="0 0 211.2 38.9"><path d="M12.2 25.6l9.5 9.5c.6.6.6 1.6 0 2.2l-1.1 1.1c-.6.6-1.6.6-2.2 0L2.7 22.8.5 20.6c-.6-.6-.6-1.6 0-2.2l2.2-2.2 8.9-8.9c.6-.6 1.6-.6 2.2 0l1.2 1c.6.6.6 1.6 0 2.2l-2.8 2.8c-3.4 3.4-3.4 8.9 0 12.3m8.3-7.2c-1-1-1.3-2.5-.8-3.8.2-.4 0-.9-.5-1-.1 0-.2-.1-.3 0-1.4.1-2.7.7-3.6 1.7-2.3 2.3-2.3 6.1 0 8.4 2.3 2.3 6.1 2.3 8.4 0 1-1 1.6-2.3 1.7-3.6 0-.4-.3-.8-.7-.8h-.3c-1.5.4-2.9.1-3.9-.9m15.7-2.3L20.5.5c-.6-.6-1.6-.6-2.2 0l-1.1 1.1c-.6.6-.6 1.6 0 2.2l9.5 9.5c3.4 3.4 3.4 8.9 0 12.3l-2.8 2.8c-.6.6-.6 1.6 0 2.2l1.1 1.1c.6.6 1.6.6 2.2 0l8.9-8.9 2.2-2.2c.6-.6.6-1.6 0-2.2l-2.1-2.3z" fill="#ffa400"/><g fill="#fff"><path class="letter" d="M60.2 14.2h2.3v3.1c1-2.2 3.2-3.5 5.6-3.4v2.5c-3.4 0-5.6 1.9-5.6 5.5v6.9h-2.3V14.2zm9.7 9v-9.1h2.3v8.8c0 2.7 1.3 3.9 3.7 3.9 2.3 0 4.2-1.9 4.2-4.2v-8.4h2.3v14.5h-2.2v-2.6c-1 1.8-2.9 2.9-4.9 2.9-3.7 0-5.4-1.9-5.4-5.8m15-1.8c-.1-4 3.1-7.4 7.1-7.5h.2c4 .1 7.1 3.5 7 7.4v.1c0 .4-.1.9-.1.9H87.2c.3 2.7 2.6 4.8 5.3 4.7 1.6 0 3.2-.5 4.5-1.6l1 1.7c-1.6 1.2-3.5 1.9-5.5 1.9-4.1.1-7.5-3.1-7.6-7.1v-.5m12-.9c-.1-2.6-2.3-4.6-4.8-4.6-2.6.1-4.7 2.1-4.8 4.6h9.6zm3.2 5.5l1-1.8c1.7 1.7 4.1 2.7 6.6 2.6 2.5 0 5.1-1.1 5.1-3.5 0-2.2-2.5-2.9-5-3.5-3.5-.9-6.9-2-6.9-5.6 0-3.5 3.3-5.2 6.8-5.2 2.4-.1 4.7.7 6.5 2.1l-1 1.8c-1.6-1.2-3.5-1.8-5.5-1.8-1.9 0-4.4.9-4.4 3 0 2 2.2 2.7 4.8 3.3 3.6.9 7.2 2.1 7.2 5.7 0 4-4 5.7-7.7 5.7-2.8.3-5.5-.8-7.5-2.8m17.6-15.9c0-.8.6-1.5 1.5-1.5.8 0 1.5.7 1.5 1.5s-.7 1.5-1.5 1.5-1.5-.7-1.5-1.5m.4 4.1h2.3v14.5h-2.3V14.2zm6.3 16.7l1-1.5c1.2 1.2 2.9 1.8 4.6 1.8 2.5 0 5.3-1.5 5.3-5.8V25c-.6 1.6-2.6 3-5.4 3-3.7 0-6.8-3-6.8-6.7v-.4c-.2-3.7 2.7-6.9 6.5-7.1h.3c2.5 0 4.8 1.1 5.5 3v-2.7h2.2v11.3c0 5.9-4.2 7.7-7.4 7.7-2.2.1-4.2-.7-5.8-2.2m10.8-10.1c0-2.7-2.2-4.9-4.9-4.9h-.1c-2.7 0-4.9 2.2-4.9 4.9v.2c-.1 2.7 2 4.9 4.7 5h.2c2.7 0 5-2.2 5-4.9v-.3m5.5-11.7h2.3v7.6c1-1.8 3-2.8 5-2.8 3.6 0 5.3 2.1 5.3 6v8.8H151v-8.5c0-2.7-1-4.1-3.7-4.1-2.4 0-4.3 1.9-4.3 4.3v8.4h-2.3V9.1zM157 24.3V16h-2.2v-1.9h2.2V11l2.3-.4v3.6h5V16h-5v8.4c0 2 .9 2.6 2 2.6.9 0 1.7-.3 2.4-.8l.7 1.8c-1 .7-2.1 1.1-3.3 1.1-2.6-.1-4.1-1.4-4.1-4.8m9.7 3.1c0-.9.7-1.6 1.6-1.6.9 0 1.6.7 1.6 1.6 0 .9-.7 1.6-1.6 1.6-.9 0-1.6-.7-1.6-1.6m5.9-13.2h2.3v2.5c.9-1.7 2.7-2.8 4.7-2.8 2.3 0 4 1 4.7 3.1 1-1.9 2.9-3 5-3.1 3.5 0 5.3 2 5.3 6v8.8h-2.3v-8.5c0-2.5-.9-4.1-3.5-4.1-2.2 0-4 1.8-4 4v8.7h-2.3v-8.5c0-2.5-.9-4.1-3.5-4.1-2.3 0-4.1 1.9-4.1 4.2v8.5h-2.3V14.2zm24.3 7.2c-.1-4.1 3.1-7.5 7.2-7.6h.2c4 .1 7.1 3.5 7 7.4v.1c0 .4-.1.9-.1.9h-11.9c.3 2.7 2.6 4.8 5.3 4.7 1.6 0 3.2-.5 4.5-1.6l1 1.7c-1.6 1.2-3.5 1.9-5.5 1.9-4.1.1-7.5-3.1-7.6-7.1-.1-.1-.1-.2-.1-.4m12.1-.9c-.1-2.6-2.3-4.6-4.8-4.6-2.6.1-4.7 2.1-4.8 4.6h9.6z"/><path class="letter" d="M52.2 11.4H45v-2h16.8v2.1h-7.2v17.3h-2.4V11.4z"/></g></svg>